<svg width="40" height="40" viewBox="0 0 40 40" fill="none" xmlns="http://www.w3.org/2000/svg">
<g clip-path="url(#clip0_300_770)">
<path d="M30.625 0H9.375C4.19733 0 0 4.19733 0 9.375V30.625C0 35.8027 4.19733 40 9.375 40H30.625C35.8027 40 40 35.8027 40 30.625V9.375C40 4.19733 35.8027 0 30.625 0Z" fill="#00005B"/>
<path d="M16.4308 24.3937H10.2308L8.96404 28.327C8.93076 28.477 8.79748 28.577 8.64748 28.5605H5.51404C5.33076 28.5605 5.28076 28.4605 5.33076 28.2605L10.6975 12.877C10.7475 12.7105 10.7975 12.5605 10.864 12.3605C10.9308 12.0105 10.964 11.6437 10.964 11.277C10.9475 11.1937 11.014 11.1105 11.0973 11.0938H15.414C15.5308 11.0938 15.614 11.1437 15.6308 11.227L21.714 28.227C21.764 28.4105 21.714 28.4937 21.5475 28.4937H18.064C17.9475 28.5105 17.8308 28.427 17.7975 28.3105L16.4308 24.3105V24.3937ZM11.1975 21.077H15.4308C15.3308 20.727 15.1973 20.3105 15.0473 19.877C14.8973 19.427 14.7473 18.9437 14.5973 18.4437C14.4308 17.927 14.2808 17.427 14.114 16.9105C13.9473 16.3939 13.7975 15.9105 13.664 15.427C13.5308 14.9605 13.414 14.527 13.2973 14.127H13.264C13.114 14.8438 12.9308 15.5605 12.6973 16.277C12.4473 17.077 12.1973 17.9105 11.9308 18.7437C11.714 19.5937 11.4473 20.377 11.1975 21.077ZM31.5308 22.8937H26.2475C26.314 23.4105 26.4808 23.927 26.764 24.377C27.064 24.827 27.4808 25.177 27.9808 25.377C28.6475 25.6605 29.3808 25.8105 30.114 25.7937C30.6975 25.777 31.2808 25.727 31.8475 25.6105C32.3558 25.544 32.8539 25.4152 33.3308 25.227C33.414 25.1605 33.464 25.1937 33.464 25.3605V27.9105C33.464 27.977 33.4475 28.0437 33.4308 28.1105C33.3975 28.1605 33.364 28.1937 33.314 28.227C32.781 28.4612 32.2213 28.6291 31.6475 28.727C30.8678 28.877 30.0745 28.9441 29.2808 28.927C28.014 28.927 26.9475 28.727 26.0808 28.3437C25.264 27.9937 24.5475 27.4437 23.9808 26.7605C23.4531 26.1183 23.0618 25.3754 22.8308 24.577C22.5975 23.7937 22.4808 22.977 22.4808 22.1437C22.4808 21.2437 22.614 20.3605 22.8975 19.4937C23.1632 18.6592 23.5876 17.8839 24.1475 17.2105C24.6975 16.5437 25.3808 16.0105 26.164 15.627C26.9475 15.2437 27.8808 15.1105 28.9475 15.1105C29.8308 15.0937 30.714 15.2605 31.5308 15.627C32.214 15.927 32.814 16.377 33.2808 16.9605C33.714 17.527 34.064 18.1605 34.2808 18.8605C34.4975 19.527 34.5975 20.2105 34.5975 20.8937C34.5975 21.2937 34.5808 21.6437 34.564 21.9605C34.5308 22.277 34.514 22.5105 34.4975 22.6605C34.4808 22.777 34.3808 22.877 34.264 22.877C34.164 22.877 33.9808 22.8937 33.714 22.9105C33.4475 22.9437 33.1308 22.9605 32.7475 22.9605C32.364 22.9605 31.964 22.8937 31.5308 22.8937ZM26.2475 20.4605H29.764C30.1975 20.4605 30.514 20.4605 30.714 20.4437C30.8475 20.427 30.9808 20.3937 31.0975 20.3105V20.1437C31.098 19.9341 31.0642 19.7258 30.9975 19.527C30.6975 18.5937 29.814 17.9605 28.8308 17.9938C28.3784 17.9684 27.9284 18.0745 27.5351 18.2993C27.1417 18.5241 26.8218 18.8579 26.614 19.2605C26.414 19.6437 26.2975 20.0437 26.2475 20.4605Z" fill="#9999FF"/>
</g>
<defs>
<clipPath id="clip0_300_770">
<rect width="40" height="40" fill="white"/>
</clipPath>
</defs>
</svg>
