<svg width="40" height="40" viewBox="0 0 40 40" fill="none" xmlns="http://www.w3.org/2000/svg">
<path d="M30.625 0H9.375C4.19733 0 0 4.19733 0 9.375V30.625C0 35.8027 4.19733 40 9.375 40H30.625C35.8027 40 40 35.8027 40 30.625V9.375C40 4.19733 35.8027 0 30.625 0Z" fill="#330000"/>
<path d="M19.3333 23.802H13.1333L11.8666 27.7188C11.8333 27.8688 11.7 27.9688 11.55 27.952H8.41657C8.23329 27.952 8.18329 27.852 8.23329 27.652L13.6 12.202C13.65 12.0355 13.7 11.852 13.7666 11.652C13.8333 11.302 13.8666 10.9355 13.8666 10.5688C13.85 10.4855 13.9166 10.402 14 10.3855H18.3166C18.45 10.3855 18.5166 10.4355 18.5333 10.5188L24.6166 27.6855C24.6666 27.8688 24.6166 27.952 24.45 27.952H20.9666C20.85 27.9688 20.7333 27.8855 20.7 27.7688L19.3333 23.802ZM14.1 20.4188H18.3333C18.2333 20.0688 18.1 19.652 17.95 19.2188C17.8 18.7688 17.65 18.2855 17.5 17.7855C17.3333 17.2688 17.1833 16.7688 17.0166 16.252C16.85 15.7355 16.7 15.252 16.5666 14.7688C16.4333 14.3022 16.3166 13.8688 16.2 13.4688H16.1666C16.0166 14.1855 15.8333 14.9022 15.6 15.6188C15.35 16.4188 15.1 17.252 14.8333 18.0855C14.6181 18.8721 14.3735 19.6504 14.1 20.4188ZM28.3333 13.302C27.7833 13.3188 27.25 13.102 26.85 12.7188C26.4667 12.302 26.2667 11.752 26.2833 11.1855C26.2667 10.6188 26.4833 10.0855 26.8833 9.70203C27.2833 9.31859 27.8167 9.11875 28.3667 9.11875C29.0167 9.11875 29.5167 9.31875 29.8833 9.70203C30.2527 10.1061 30.45 10.6383 30.4333 11.1855C30.45 11.752 30.25 12.302 29.85 12.7188C29.4667 13.1188 28.9 13.3355 28.3333 13.302ZM26.4667 27.7688V14.9355C26.4667 14.7688 26.5333 14.702 26.6833 14.702H29.9833C30.1333 14.702 30.2 14.7855 30.2 14.9355V27.7688C30.2 27.952 30.1333 28.0355 29.9833 28.0355H26.7167C26.55 28.0355 26.4667 27.9355 26.4667 27.7688Z" fill="#FF9A00"/>
</svg>
