<svg width="40" height="40" viewBox="0 0 40 40" fill="none" xmlns="http://www.w3.org/2000/svg">
<g clip-path="url(#clip0_300_772)">
<path d="M7.08344 0.500488H32.9166C36.8334 0.500488 40 3.66705 40 7.58393V32.4171C40 36.3339 36.8334 39.5005 32.9166 39.5005H7.08344C3.16656 39.5005 0 36.3339 0 32.4171V7.58393C0 3.66705 3.16656 0.500488 7.08344 0.500488Z" fill="#001E36"/>
<path d="M14.3334 10.4163C13.8334 10.4163 13.3334 10.4163 12.8169 10.4331C12.3 10.4497 11.8166 10.4497 11.3666 10.4666C10.9166 10.4831 10.5 10.4831 10.1 10.4997C9.71656 10.5163 9.45 10.5163 9.16656 10.5163C9.05 10.5163 9 10.5828 9 10.6997V27.8497C9 27.9997 9.06656 28.0666 9.2 28.0666H12.4334C12.55 28.0497 12.6334 27.9497 12.6166 27.8331V22.4831C12.9331 22.4831 13.1666 22.4831 13.3334 22.4997C13.5 22.5163 13.7666 22.5163 14.1666 22.5163C15.5334 22.5163 16.7834 22.3663 17.9166 21.9497C19 21.5497 19.9334 20.8497 20.6 19.9163C21.2667 18.9829 21.6 17.7996 21.6 16.3663C21.6 15.6163 21.4669 14.8997 21.2169 14.1997C20.952 13.4865 20.537 12.8386 20 12.2997C19.3662 11.684 18.6033 11.217 17.7666 10.9328C16.8331 10.5828 15.7 10.4163 14.3334 10.4163ZM14.7053 13.6991C15.2991 13.7103 15.8772 13.8141 16.4166 14.0328C16.9 14.2163 17.3 14.5497 17.5834 14.9828C17.8493 15.4311 17.9822 15.9456 17.9669 16.4666C17.9669 17.1997 17.8 17.7666 17.45 18.1831C17.0831 18.5997 16.6166 18.9166 16.0834 19.0666C15.4666 19.2666 14.8166 19.3663 14.1666 19.3663H13.2831C13.0831 19.3663 12.8669 19.3497 12.6334 19.3331V13.7331C12.75 13.7163 12.9834 13.6997 13.3169 13.7166C13.6334 13.6997 14.0166 13.6997 14.45 13.6997C14.5354 13.6976 14.6205 13.6974 14.7053 13.6991ZM28.6834 14.55C27.5 14.55 26.5166 14.7331 25.7334 15.1331C25.0169 15.4666 24.4 15.9997 23.9834 16.6663C23.6169 17.2831 23.4166 17.9663 23.4166 18.6831C23.4023 19.2727 23.534 19.8567 23.8 20.3831C24.1117 20.9437 24.5445 21.4276 25.0669 21.7997C25.8 22.3012 26.5956 22.7046 27.4334 22.9997C28.25 23.3163 28.8 23.5663 29.0669 23.7828C29.3334 23.9997 29.4669 24.2163 29.4669 24.4497C29.4669 24.7497 29.2834 25.0331 29.0169 25.1497C28.7169 25.2997 28.2669 25.3831 27.6334 25.3831C26.9669 25.3831 26.3 25.2997 25.6666 25.1331C24.9392 24.9707 24.2419 24.6952 23.6 24.3166C23.55 24.2831 23.5 24.2666 23.45 24.3C23.4 24.3331 23.3834 24.3997 23.3834 24.4497V27.3497C23.3669 27.4831 23.45 27.5997 23.5669 27.6663C24.1073 27.9188 24.679 28.0981 25.2669 28.1997C26.0169 28.3497 26.7666 28.4163 27.5331 28.4163C28.7331 28.4163 29.7334 28.2331 30.55 27.8831C31.3 27.5831 31.95 27.0666 32.4166 26.3997C32.8535 25.7441 33.0803 24.9709 33.0666 24.1831C33.083 23.588 32.9514 22.9982 32.6834 22.4666C32.3666 21.8997 31.9166 21.4331 31.3666 21.0831C30.562 20.5778 29.7005 20.1694 28.8 19.8663C28.3979 19.6998 28.003 19.5163 27.6166 19.3163C27.4 19.1997 27.2 19.0497 27.05 18.8663C26.95 18.7328 26.8834 18.5831 26.8834 18.4331C26.8834 18.2831 26.9334 18.1166 27.0166 17.9831C27.1334 17.8166 27.3166 17.6997 27.5331 17.6497C27.85 17.5666 28.2 17.5163 28.5331 17.5328C29.1666 17.5328 29.7831 17.6163 30.4 17.7497C30.9669 17.8663 31.5 18.0497 32 18.3166C32.0666 18.3497 32.15 18.3497 32.3 18.3166C32.326 18.2973 32.3472 18.2721 32.3617 18.2431C32.3762 18.2141 32.3836 18.1821 32.3834 18.1497V15.4331C32.3834 15.3663 32.3666 15.2997 32.35 15.2331C32.3166 15.1666 32.25 15.0997 32.1834 15.0831C31.7237 14.8953 31.2421 14.7664 30.75 14.6997C30.0657 14.6001 29.375 14.5502 28.6834 14.55Z" fill="#31A8FF"/>
</g>
<defs>
<clipPath id="clip0_300_772">
<rect width="40" height="40" fill="white"/>
</clipPath>
</defs>
</svg>
