<svg width="40" height="40" viewBox="0 0 40 40" fill="none" xmlns="http://www.w3.org/2000/svg">
<path d="M16.6667 18.3333H10C9.55798 18.3333 9.13406 18.1577 8.8215 17.8452C8.50894 17.5326 8.33334 17.1087 8.33334 16.6667V11.6667C8.33334 11.2246 8.50894 10.8007 8.8215 10.4882C9.13406 10.1756 9.55798 10 10 10H15C15.442 10 15.866 10.1756 16.1785 10.4882C16.4911 10.8007 16.6667 11.2246 16.6667 11.6667V18.3333ZM16.6667 18.3333V21.6667C16.6667 26.1117 14.445 28.8883 10 30M31.6667 18.3333H25C24.558 18.3333 24.1341 18.1577 23.8215 17.8452C23.5089 17.5326 23.3333 17.1087 23.3333 16.6667V11.6667C23.3333 11.2246 23.5089 10.8007 23.8215 10.4882C24.1341 10.1756 24.558 10 25 10H30C30.442 10 30.866 10.1756 31.1785 10.4882C31.4911 10.8007 31.6667 11.2246 31.6667 11.6667V18.3333ZM31.6667 18.3333V21.6667C31.6667 26.1117 29.445 28.8883 25 30" stroke="#F2F2F2" stroke-width="3.33333" stroke-linecap="round" stroke-linejoin="round"/>
</svg>
