<svg width="91" height="28" viewBox="0 0 91 28" fill="none" xmlns="http://www.w3.org/2000/svg">
<path d="M82.1332 24.6855C82.0509 24.6855 81.763 24.6754 81.2694 24.6551C80.7758 24.6551 80.1177 24.645 79.2951 24.6247C78.4725 24.6044 77.547 24.5841 76.5187 24.5639C75.511 24.5436 74.4416 24.5334 73.3105 24.5334C72.0765 24.5334 71.0071 24.5436 70.1022 24.5639C69.1973 24.5841 68.3953 24.6146 67.6961 24.6551C66.9968 24.6957 66.3284 24.7363 65.6909 24.7768C65.4853 24.7971 65.3927 24.6653 65.4133 24.3813C65.4133 24.0771 65.4544 23.8844 65.5367 23.8033C65.8246 23.4585 66.1125 23.1238 66.4004 22.7993C66.6678 22.4748 66.9351 22.1503 67.2025 21.8258C67.4904 21.481 67.7783 21.1565 68.0662 20.8522C69.0945 19.7164 70.1228 18.5502 71.1511 17.3536C72.1999 16.1569 73.2488 14.9501 74.2976 13.7332C75.3465 12.5163 76.3953 11.2993 77.4442 10.0824C78.5136 8.86549 79.583 7.66885 80.6524 6.49249C80.7758 6.35051 80.8375 6.20854 80.8375 6.06656C80.8581 5.92459 80.7244 5.8536 80.4365 5.8536C80.2514 5.8536 79.9943 5.86374 79.6653 5.88402C79.3362 5.88402 41.9023 5.89416 41.5321 5.91445C41.1825 5.93473 40.8431 5.95501 40.5141 5.97529C40.2056 5.99557 39.9691 6.01586 39.8046 6.03614C38.9614 6.15783 38.1593 6.41136 37.3984 6.79672C36.6375 7.1618 35.8971 7.7804 35.1773 8.65253C34.9716 8.9162 34.766 9.15958 34.5603 9.38269C34.3547 9.60579 34.0873 9.71734 33.7583 9.71734C33.5732 9.71734 33.4703 9.66664 33.4498 9.56523C33.4292 9.44353 33.4292 9.3117 33.4498 9.16972C33.4909 9.04803 33.532 8.9162 33.5732 8.77422C33.6143 8.63225 33.676 8.49027 33.7583 8.3483C34.1284 7.69927 34.4164 7.12123 34.622 6.61418C34.8277 6.08684 35.0333 5.56965 35.239 5.0626C35.383 4.73808 35.5166 4.51498 35.64 4.39329C35.784 4.25131 35.9794 4.18032 36.2261 4.18032C36.8842 4.18032 37.6246 4.28174 38.4472 4.48456C39.2699 4.68738 40.1953 4.78879 41.2236 4.78879C41.82 4.78879 79.4288 4.78879 79.8812 4.78879C80.3542 4.78879 80.8889 4.78879 81.4853 4.78879C82.0612 4.78879 82.7501 4.77865 83.5522 4.75836C84.3543 4.7178 85.1357 4.68738 85.8967 4.66709C86.6576 4.64681 87.2643 4.63667 87.7167 4.63667C87.8813 4.63667 87.9944 4.74822 88.0561 4.97133C88.1178 5.17415 88.1075 5.31612 88.0252 5.39725L84.9404 8.86549C84.0355 9.8796 83.0792 10.9647 82.0715 12.1208C81.0843 13.2566 80.0766 14.4228 79.0483 15.6194C78.0406 16.7958 77.0329 17.9722 76.0252 19.1485C75.0174 20.3046 74.0406 21.41 73.0945 22.4647C72.6215 22.992 72.6832 23.2557 73.2796 23.2557C73.6293 23.2557 74.1845 23.2557 74.9455 23.2557C75.727 23.2354 76.457 23.2151 77.1357 23.1948C77.7732 23.1745 78.3491 23.134 78.8632 23.0731C79.3979 23.0123 79.8812 22.921 80.3131 22.7993C80.7655 22.6573 81.1871 22.4849 81.5779 22.2821C82.1537 21.9779 82.6782 21.6128 83.1512 21.1869C83.6447 20.761 84.128 20.2336 84.601 19.6049C84.7244 19.4426 84.8375 19.3412 84.9404 19.3006C85.0432 19.2601 85.1563 19.2398 85.2797 19.2398C85.4031 19.2398 85.4956 19.2804 85.5573 19.3615C85.6396 19.4426 85.6602 19.5542 85.619 19.6961C85.5368 19.9598 85.4031 20.2742 85.218 20.6393C85.0329 20.9841 84.8273 21.3593 84.601 21.7649C84.3748 22.1503 84.1383 22.5458 83.8915 22.9514C83.6653 23.3368 83.4391 23.712 83.2129 24.0771C83.0895 24.2799 82.9352 24.432 82.7501 24.5334C82.565 24.6348 82.3594 24.6855 82.1332 24.6855Z" fill="#F2F2F2"/>
<path d="M55.4297 25C55.224 25 54.9566 24.9407 54.6276 24.8219C54.3191 24.7032 54.0415 24.535 53.7947 24.3173C53.5479 24.0799 53.4245 23.8127 53.4245 23.5159C53.4245 23.3971 53.4348 23.2883 53.4553 23.1894C53.4759 23.0706 53.5068 22.9519 53.5479 22.8332L56.7253 14.9375C56.8076 14.7397 56.8178 14.5912 56.7561 14.4923C56.6944 14.3736 56.5608 14.3142 56.3551 14.3142C55.9027 14.3142 55.553 14.4032 55.3063 14.5813C55.0595 14.7594 54.7716 14.9771 54.4425 15.2344C54.3397 15.3135 54.206 15.3531 54.0415 15.3531C53.8769 15.3531 53.7844 15.264 53.7638 15.086C53.7227 14.6308 53.9078 14.1757 54.3191 13.7205C54.751 13.2456 55.2857 12.84 55.9232 12.5035C56.4168 12.2265 56.9412 12.0088 57.4965 11.8505C58.0723 11.6922 58.6173 11.6131 59.1315 11.6131C59.7073 11.6131 60.1289 11.7714 60.3963 12.088C60.6842 12.3848 60.8281 12.8004 60.8281 13.3347C60.8487 13.8492 60.7048 14.4428 60.3963 15.1156L59.2549 17.6684C59.1932 17.8069 59.2137 17.886 59.3166 17.9058C59.44 17.9256 59.5428 17.8662 59.6251 17.7277C60.3243 16.5206 61.003 15.4619 61.6611 14.5517C62.3192 13.6414 62.9978 12.929 63.6971 12.4145C64.4169 11.8802 65.1778 11.6131 65.9799 11.6131C66.6585 11.6131 67.1829 11.8011 67.5531 12.177C67.9233 12.553 68.1084 13.0279 68.1084 13.6018C68.1084 14.1559 67.9644 14.6902 67.6765 15.2047C67.4092 15.7192 67.0801 16.1347 66.6894 16.4514C66.3192 16.768 65.9696 16.9263 65.6405 16.9263C65.3937 16.9263 65.1984 16.8273 65.0544 16.6295C64.931 16.4118 64.8179 16.0853 64.7151 15.6499C64.6328 15.2937 64.53 14.9771 64.4066 14.7001C64.2832 14.4032 64.0878 14.2548 63.8204 14.2548C63.4297 14.2548 63.0492 14.5022 62.6791 14.9969C62.3089 15.4916 61.8873 16.1446 61.4143 16.956C61.2703 17.1934 61.0544 17.5595 60.7664 18.0542C60.4991 18.5292 60.1906 19.0635 59.841 19.6571C59.5119 20.231 59.1829 20.8048 58.8538 21.3787C58.5248 21.9328 58.2369 22.4077 57.9901 22.8035C57.6405 23.3971 57.2292 23.9117 56.7561 24.347C56.2831 24.7823 55.841 25 55.4297 25Z" fill="#F2F2F2"/>
<path d="M43.0714 25C42.2282 25 41.4365 24.8219 40.6961 24.4657C39.9557 24.0897 39.3593 23.5752 38.9069 22.9222C38.4544 22.2692 38.2282 21.4974 38.2282 20.607C38.2282 19.6967 38.4339 18.727 38.8452 17.698C39.2565 16.6492 39.8632 15.6697 40.6652 14.7594C41.4673 13.8294 42.4442 13.0774 43.5959 12.5035C44.7475 11.9099 46.0637 11.6131 47.5445 11.6131C48.9841 11.6131 50.146 11.9989 51.0303 12.7707C51.9352 13.5227 52.3877 14.6011 52.3877 16.0061C52.3877 16.9164 52.182 17.8959 51.7707 18.9447C51.3594 19.9737 50.7527 20.9533 49.9506 21.8833C49.1486 22.7936 48.1717 23.5456 47.02 24.1392C45.8684 24.7131 44.5522 25 43.0714 25ZM43.6884 23.783C44.0791 23.783 44.4699 23.5654 44.8606 23.13C45.272 22.6749 45.6627 22.0812 46.0329 21.349C46.4031 20.6169 46.7321 19.8154 47.02 18.9447C47.308 18.0542 47.5342 17.1736 47.6987 16.3029C47.8838 15.4125 47.9763 14.611 47.9763 13.8986C47.9763 13.5029 47.8941 13.2159 47.7296 13.0378C47.565 12.84 47.3182 12.741 46.9892 12.741C46.6601 12.741 46.3002 12.9686 45.9095 13.4237C45.5187 13.8591 45.128 14.4428 44.7372 15.175C44.3671 15.9072 44.0277 16.7185 43.7192 17.609C43.4108 18.4797 43.1537 19.3504 42.948 20.2211C42.7629 21.0918 42.6704 21.8833 42.6704 22.5957C42.6704 22.9915 42.7629 23.2883 42.948 23.4862C43.1537 23.6841 43.4005 23.783 43.6884 23.783Z" fill="#F2F2F2"/>
<path d="M23.7571 25C23.572 25 23.3252 24.9288 23.0168 24.7864C22.7288 24.6644 22.4615 24.4813 22.2147 24.2372C21.9679 23.9931 21.8445 23.7083 21.8445 23.3828C21.8445 23.037 21.8754 22.6912 21.9371 22.3454C22.0193 21.9996 22.1324 21.6131 22.2764 21.1859L26.3792 8.24829C26.4821 7.94316 26.5541 7.65837 26.5952 7.39392C26.6569 7.10913 26.6877 6.83451 26.6877 6.57006C26.6877 6.28527 26.5541 6.07168 26.2867 5.92929C26.0399 5.76655 25.7726 5.63433 25.4846 5.53262C25.3407 5.47159 25.1967 5.41056 25.0528 5.34954C24.9294 5.26817 24.8677 5.16646 24.8677 5.0444C24.8677 4.92235 24.9191 4.82064 25.0219 4.73927C25.1247 4.63756 25.3715 4.51551 25.7623 4.37311C26.0091 4.29175 26.3895 4.17987 26.9037 4.03747C27.4384 3.87473 27.9937 3.72217 28.5695 3.57977C29.1659 3.41704 29.7006 3.28481 30.1736 3.1831C30.6466 3.06105 30.9757 3.00002 31.1608 3.00002C31.3253 3.00002 31.5104 3.02036 31.716 3.06105C31.9217 3.08139 32.0245 3.20344 32.0245 3.42721C32.0245 3.69166 31.9937 3.92559 31.932 4.12901C31.8703 4.31209 31.7983 4.51551 31.716 4.73927L27.3972 17.4022C27.3561 17.5446 27.3767 17.626 27.4589 17.6463C27.5618 17.6463 27.6543 17.5853 27.7366 17.4633C28.4564 16.3241 29.2379 15.2867 30.0811 14.3509C30.9243 13.3948 31.788 12.6422 32.6723 12.0929C33.5567 11.5234 34.4204 11.2386 35.2636 11.2386C36.1479 11.2386 36.8061 11.5132 37.2379 12.0624C37.6904 12.5913 37.9166 13.2423 37.9166 14.0153C37.9166 15.0934 37.7829 16.1105 37.5156 17.0666C37.2688 18.0023 36.9192 18.8872 36.4667 19.7212C36.0348 20.5553 35.5413 21.3283 34.986 22.0402C34.842 22.2233 34.5541 22.4776 34.1222 22.8031C33.6903 23.1285 33.1968 23.4642 32.6415 23.81C32.1068 24.1355 31.5926 24.4101 31.0991 24.6339C30.6261 24.878 30.2764 25 30.0502 25C29.7623 25 29.4641 24.9085 29.1556 24.7254C28.8471 24.5627 28.5798 24.3694 28.3536 24.1457C28.1479 23.9015 28.0451 23.6981 28.0451 23.5354C28.0451 23.4337 28.0965 23.2608 28.1993 23.0167C28.3227 22.7522 28.4667 22.5081 28.6312 22.2844C28.8163 22.0606 29.0014 21.9487 29.1865 21.9487C29.4127 21.9487 29.5772 22.0097 29.68 22.1318C29.8034 22.2335 29.9474 22.3657 30.1119 22.5285C30.2764 22.6709 30.441 22.8132 30.6055 22.9556C30.77 23.0777 30.9551 23.1387 31.1608 23.1387C31.3459 23.1387 31.5412 22.9353 31.7469 22.5285C31.9525 22.1013 32.1479 21.5622 32.333 20.9113C32.5387 20.24 32.7135 19.528 32.8574 18.7753C33.0014 18.0023 33.1145 17.2598 33.1968 16.5479C33.2996 15.8156 33.351 15.1951 33.351 14.6866C33.351 14.3814 33.2893 14.1373 33.1659 13.9543C33.0631 13.7508 32.8883 13.6491 32.6415 13.6491C32.3947 13.6491 32.0862 13.8627 31.716 14.2899C31.3459 14.6967 30.9243 15.2561 30.4513 15.9681C29.9988 16.6801 29.5052 17.4734 28.9705 18.3482C28.4564 19.2025 27.9217 20.0772 27.3664 20.9723C26.8317 21.8673 26.297 22.7115 25.7623 23.5049C25.4127 24.0338 25.063 24.4101 24.7134 24.6339C24.3844 24.878 24.0656 25 23.7571 25Z" fill="#F2F2F2"/>
<path d="M3.41327 24.6491C3.28987 24.6491 3.16648 24.6085 3.04308 24.5272C2.91969 24.4459 2.87856 24.3342 2.91969 24.192C2.98139 24.0091 3.0945 23.8669 3.25902 23.7653C3.42355 23.6434 3.60864 23.5621 3.8143 23.5214C4.65749 23.3386 5.27446 23.1354 5.66521 22.9119C6.07652 22.6681 6.38501 22.2312 6.59066 21.6014L10.6935 8.64835C11.0637 7.44956 11.2385 6.68762 11.2179 6.36252C11.2179 6.03743 11.0329 5.87488 10.6627 5.87488H9.45958C8.78091 5.87488 8.08168 6.06791 7.36188 6.45396C6.66265 6.84001 6.04567 7.29717 5.51097 7.82545C5.36701 7.96768 5.15107 8.17086 4.86315 8.435C4.59579 8.69914 4.30787 8.93281 3.99939 9.13599C3.71147 9.33918 3.4544 9.44077 3.22818 9.44077C3.04308 9.44077 2.94026 9.38997 2.91969 9.28838C2.89912 9.16647 2.89912 9.0344 2.91969 8.89217C2.96082 8.77026 3.02252 8.63819 3.10478 8.49596C3.18704 8.33341 3.27959 8.19118 3.38242 8.06927C4.06109 7.29717 4.56495 6.6165 4.894 6.02727C5.22305 5.43803 5.53153 4.76753 5.81945 4.01574C5.92228 3.73129 6.04567 3.5281 6.18963 3.40619C6.35416 3.28428 6.53925 3.22332 6.74491 3.22332C6.97113 3.22332 7.20764 3.32492 7.45442 3.5281C7.72178 3.71097 7.95828 3.87351 8.16394 4.01574C8.3696 4.13765 8.56497 4.25956 8.75006 4.38147C8.95572 4.48307 9.24364 4.5745 9.61382 4.65577C9.984 4.71673 10.5187 4.74721 11.2179 4.74721L19.2077 4.71673C20.1126 4.71673 20.8118 4.68625 21.3054 4.6253C21.8196 4.56434 22.1897 4.49323 22.416 4.41195C22.6627 4.33068 22.8376 4.26972 22.9404 4.22909C23.3928 4.06654 23.763 3.86336 24.0509 3.61953C24.3594 3.37571 24.6473 3.2538 24.9147 3.2538C25.2026 3.2538 25.2849 3.41635 25.1615 3.74144C25.1409 3.82272 25.1101 3.91415 25.0689 4.01574C25.0278 4.11734 24.9764 4.21893 24.9147 4.32052C24.4828 5.03167 24.1126 5.71233 23.8041 6.36252C23.4957 7.01271 23.218 7.70354 22.9712 8.435C22.8478 8.80074 22.7244 9.08519 22.601 9.28838C22.4777 9.47125 22.3131 9.56268 22.1075 9.56268C21.9018 9.56268 21.7579 9.47125 21.6756 9.28838C21.6139 9.10551 21.5728 8.80074 21.5522 8.37405C21.5316 7.56131 21.3568 6.9416 21.0278 6.51491C20.6987 6.08822 20.092 5.87488 19.2077 5.87488H18.0046C17.6756 5.87488 17.3979 5.946 17.1717 6.08823C16.9455 6.23045 16.7398 6.50475 16.5547 6.91112C16.3902 7.29717 16.1846 7.85593 15.9378 8.58739L11.8349 21.5709C11.6498 22.1398 11.6807 22.5563 11.9275 22.8205C12.1742 23.0643 12.6678 23.2979 13.4082 23.5214C13.5727 23.5824 13.7064 23.6535 13.8092 23.7348C13.912 23.8161 13.9326 23.9583 13.8709 24.1615C13.8298 24.3037 13.7372 24.4155 13.5933 24.4967C13.4699 24.578 13.3259 24.6186 13.1614 24.6186C12.7295 24.6186 12.2051 24.6085 11.5881 24.5882C10.9712 24.5678 10.3645 24.5475 9.76806 24.5272C9.17166 24.5069 8.6678 24.4967 8.25649 24.4967C7.84517 24.4967 7.34131 24.5069 6.74491 24.5272C6.16907 24.5475 5.58295 24.5678 4.98654 24.5882C4.39014 24.6288 3.86571 24.6491 3.41327 24.6491Z" fill="#F2F2F2"/>
</svg>
