<svg width="239" height="19" viewBox="0 0 239 19" fill="none" xmlns="http://www.w3.org/2000/svg">
<path d="M0.483086 7.20686C0.351127 7.21189 0.226105 7.26842 0.135547 7.36481C0.0449884 7.4612 -0.00369239 7.58941 0.000218093 7.72139C0.00412861 7.85337 0.060315 7.97847 0.156421 8.06932C0.252528 8.16019 0.380677 8.20921 0.512703 8.20642C0.512703 8.20642 0.512703 8.20642 0.512703 8.20642C6.08553 8.0884 11.6593 7.96868 17.2321 7.84739C42.085 7.30629 66.9088 6.73471 91.773 6.13066C131.366 5.20293 171.021 3.49004 210.544 3.10356C215.034 3.08888 219.46 3.07332 223.913 3.05638C226.15 3.04786 228.332 3.03925 230.587 3.02993C231.697 3.02534 232.808 3.02065 233.923 3.01578C234.468 3.0134 235.035 3.01088 235.589 3.00834C235.861 3.0071 236.151 3.00575 236.421 3.00446C236.564 3.00377 236.702 3.00309 236.838 3.00241C236.911 3.00203 236.978 3.00169 237.047 3.00132C237.073 3.00117 237.123 3.0009 237.149 3.00075C237.17 3.00062 237.188 3.00051 237.202 3.00042C237.213 3.00035 237.223 3.00028 237.231 3.00022C237.233 3.0002 237.24 3.00015 237.246 3.0001C237.249 3.00007 237.252 3.00005 237.254 3.00002C237.255 3.00001 237.258 2.99999 237.267 2.99984C237.274 2.99965 237.273 2.99999 237.309 2.9986C237.319 2.99804 237.331 2.99786 237.371 2.99459C237.383 2.99355 237.393 2.99261 237.416 2.99002C237.449 2.98549 237.47 2.98525 237.572 2.96342C237.572 2.96407 237.647 2.94515 237.655 2.94223C237.678 2.93563 237.705 2.92752 237.738 2.91613C237.718 2.92301 237.787 2.89912 237.823 2.88335C237.823 2.88335 237.823 2.88335 237.823 2.88335C237.835 2.87831 237.784 2.90017 237.858 2.86822C237.858 2.86822 237.858 2.86822 237.858 2.86822C237.871 2.86218 237.815 2.88833 237.897 2.85011C237.897 2.85011 237.897 2.85011 237.897 2.85011C237.988 2.80383 237.926 2.8355 237.94 2.82819C238.001 2.79564 238.077 2.7525 238.174 2.67596C238.174 2.67596 238.174 2.67596 238.174 2.67596C238.132 2.71225 238.294 2.57435 238.251 2.61064C238.251 2.61064 238.251 2.61064 238.251 2.61064C238.251 2.61064 238.251 2.61064 238.251 2.61064C238.251 2.61064 238.251 2.61064 238.251 2.61064C238.251 2.61064 238.251 2.61064 238.251 2.61064C238.204 2.65686 238.383 2.48123 238.336 2.52745C238.336 2.52745 238.336 2.52745 238.336 2.52745C238.336 2.52745 238.336 2.52745 238.336 2.52745C238.336 2.52745 238.336 2.52745 238.336 2.52745C238.336 2.52745 238.336 2.52745 238.336 2.52745C238.366 2.49217 238.235 2.64505 238.427 2.42161C238.427 2.42161 238.427 2.42161 238.427 2.42161C238.427 2.42161 238.427 2.42161 238.427 2.42161C238.427 2.42161 238.427 2.42161 238.427 2.42161C238.375 2.49611 238.571 2.21301 238.52 2.28751C238.52 2.28751 238.52 2.28751 238.52 2.28751C238.52 2.28751 238.52 2.28751 238.52 2.28751C238.52 2.28751 238.52 2.28751 238.52 2.28751C238.52 2.28751 238.52 2.28751 238.52 2.28751C238.707 1.93593 238.579 2.17649 238.609 2.12097C238.609 2.12097 238.609 2.12097 238.609 2.12097C238.567 2.23183 238.724 1.81058 238.683 1.92143C238.683 1.92143 238.683 1.92143 238.683 1.92143C238.683 1.92143 238.683 1.92143 238.683 1.92143C238.683 1.92143 238.683 1.92143 238.683 1.92143C238.772 1.63511 238.758 1.26435 238.655 0.994161C238.655 0.994161 238.655 0.994161 238.655 0.994161C238.701 1.09849 238.527 0.702042 238.573 0.80637C238.573 0.80637 238.573 0.80637 238.573 0.80637C238.573 0.80637 238.573 0.80637 238.573 0.80637C238.573 0.80637 238.573 0.80637 238.573 0.80637C238.573 0.80637 238.573 0.80637 238.573 0.80637C238.378 0.481462 238.511 0.703768 238.481 0.652466C238.481 0.652466 238.481 0.652466 238.481 0.652466C238.481 0.652466 238.481 0.652466 238.481 0.652466C238.481 0.652466 238.481 0.652466 238.481 0.652466C238.481 0.652466 238.481 0.652466 238.481 0.652466C238.533 0.720787 238.335 0.461169 238.387 0.52949C238.387 0.52949 238.387 0.52949 238.387 0.52949C238.387 0.52949 238.387 0.52949 238.387 0.52949C238.387 0.52949 238.387 0.52949 238.387 0.52949C238.437 0.583221 238.247 0.379042 238.297 0.432773C238.297 0.432773 238.297 0.432773 238.297 0.432773C238.297 0.432773 238.297 0.432773 238.297 0.432773C238.297 0.432773 238.297 0.432773 238.297 0.432773C238.27 0.407554 238.389 0.516836 238.215 0.357116C238.215 0.357116 238.215 0.357116 238.215 0.357116C238.215 0.357116 238.215 0.357116 238.215 0.357116C238.256 0.39018 238.098 0.264539 238.14 0.297602C238.14 0.297602 238.14 0.297602 238.14 0.297602C238.14 0.297602 238.14 0.297602 238.14 0.297602C238.14 0.297602 238.14 0.297602 238.14 0.297602C238.045 0.227695 237.973 0.188278 237.914 0.158349C237.889 0.142135 237.713 0.07286 237.718 0.0772047C237.646 0.0539432 237.639 0.0530427 237.593 0.0414426C237.471 0.0138624 237.45 0.0148566 237.413 0.00964499C237.358 0.00367832 237.339 0.00319886 237.325 0.00224233C237.242 -0.00126076 237.266 0.000504971 237.254 5.06639e-05C237.242 -2.07424e-05 237.242 6.55651e-06 237.24 0L237.066 0.0100932C237.066 0.0100933 237.066 0.0101053 237.066 0.010129C230.486 0.78017 223.896 1.58737 217.318 2.45591C211.394 3.25819 205.492 4.13584 199.58 5.01971C187.329 6.93513 175.206 9.30247 163.099 11.8326C163.099 11.8326 163.099 11.8327 163.099 11.8327C161.11 12.2559 159.152 12.7265 157.189 13.2372C153.09 14.3054 149.026 15.5321 145.03 16.896C145.03 16.896 145.03 16.896 145.03 16.896C143.751 17.3222 142.477 17.7468 141.201 18.1722C142.477 17.7468 143.751 17.3222 145.03 16.896C145.03 16.896 145.03 16.896 145.03 16.896C149.031 15.5306 153.188 14.6658 157.335 13.8929C159.322 13.5229 161.298 13.1769 163.292 12.8138C163.292 12.8138 163.293 12.8137 163.293 12.8137C175.437 10.6494 187.667 8.76599 199.879 7.26554C205.816 6.57584 211.736 5.87256 217.66 5.20125C224.219 4.48048 230.84 3.75916 237.413 2.98994C237.413 2.98992 237.414 2.98991 237.414 2.98991L237.24 3C237.238 2.99999 237.24 3.00002 237.231 2.99996C237.219 2.99952 237.244 3.00129 237.161 2.9978C237.147 2.99685 237.128 2.99637 237.073 2.9904C237.036 2.98519 237.015 2.98619 236.893 2.95861C236.847 2.94701 236.84 2.94611 236.768 2.92285C236.773 2.92719 236.597 2.85792 236.572 2.8417C236.513 2.81177 236.441 2.77236 236.346 2.70245C236.346 2.70245 236.346 2.70245 236.346 2.70245C236.346 2.70245 236.346 2.70245 236.346 2.70245C236.346 2.70245 236.346 2.70245 236.346 2.70245C236.388 2.73551 236.23 2.60987 236.272 2.64294C236.272 2.64294 236.272 2.64294 236.272 2.64294C236.272 2.64294 236.272 2.64294 236.272 2.64294C236.097 2.48322 236.217 2.5925 236.189 2.56728C236.189 2.56728 236.189 2.56728 236.189 2.56728C236.189 2.56728 236.189 2.56728 236.189 2.56728C236.189 2.56728 236.189 2.56728 236.189 2.56728C236.239 2.62101 236.05 2.41683 236.099 2.47056C236.099 2.47056 236.099 2.47056 236.099 2.47056C236.099 2.47056 236.099 2.47056 236.099 2.47056C236.099 2.47056 236.099 2.47056 236.099 2.47056C236.152 2.53888 235.953 2.27927 236.005 2.34759C236.005 2.34759 236.005 2.34759 236.005 2.34759C236.005 2.34759 236.005 2.34759 236.005 2.34759C236.005 2.34759 236.005 2.34759 236.005 2.34759C236.005 2.34759 236.005 2.34759 236.005 2.34759C235.975 2.29628 236.108 2.51859 235.913 2.19368C235.913 2.19368 235.913 2.19368 235.913 2.19368C235.913 2.19368 235.913 2.19368 235.913 2.19368C235.913 2.19368 235.913 2.19368 235.913 2.19368C235.913 2.19368 235.913 2.19368 235.913 2.19368C235.959 2.29801 235.785 1.90156 235.831 2.00589C235.831 2.00589 235.831 2.00589 235.831 2.00589C235.728 1.7357 235.714 1.36494 235.803 1.07862C235.803 1.07862 235.803 1.07862 235.803 1.07862C235.803 1.07862 235.803 1.07862 235.803 1.07862C235.803 1.07862 235.803 1.07862 235.803 1.07862C235.762 1.18948 235.919 0.768224 235.878 0.87908C235.878 0.87908 235.878 0.87908 235.878 0.87908C235.907 0.823567 235.779 1.06412 235.966 0.712543C235.966 0.712543 235.966 0.712543 235.966 0.712543C235.966 0.712543 235.966 0.712543 235.966 0.712543C235.966 0.712543 235.966 0.712543 235.966 0.712543C235.966 0.712543 235.966 0.712543 235.966 0.712543C235.915 0.787043 236.111 0.503942 236.06 0.578443C236.06 0.578443 236.06 0.578443 236.06 0.578443C236.06 0.578443 236.06 0.578443 236.06 0.578443C236.06 0.578443 236.06 0.578443 236.06 0.578443C236.251 0.355003 236.12 0.507883 236.15 0.472603C236.15 0.472603 236.15 0.472603 236.15 0.472603C236.15 0.472603 236.15 0.472603 236.15 0.472603C236.15 0.472603 236.15 0.472603 236.15 0.472603C236.15 0.472603 236.15 0.472603 236.15 0.472603C236.103 0.518821 236.282 0.343192 236.235 0.38941C236.235 0.38941 236.235 0.38941 236.235 0.38941C236.235 0.38941 236.235 0.38941 236.235 0.38941C236.235 0.38941 236.235 0.38941 236.235 0.38941C236.235 0.38941 236.235 0.38941 236.235 0.38941C236.192 0.425699 236.355 0.287801 236.312 0.32409C236.312 0.32409 236.312 0.32409 236.312 0.32409C236.409 0.247558 236.485 0.204417 236.546 0.171863C236.56 0.164556 236.498 0.196219 236.589 0.149943C236.589 0.149943 236.589 0.149943 236.589 0.149943C236.671 0.111721 236.615 0.137873 236.628 0.131838C236.628 0.131838 236.628 0.131838 236.628 0.131838C236.702 0.0998858 236.651 0.121748 236.663 0.116703C236.663 0.116703 236.663 0.116703 236.663 0.116703C236.699 0.100939 236.768 0.0770417 236.748 0.0839264C236.781 0.0725383 236.808 0.0644237 236.831 0.0578201C236.839 0.0549079 236.915 0.0359871 236.914 0.036634C237.016 0.0148073 237.037 0.014564 237.07 0.0100424C237.093 0.00745344 237.104 0.0065105 237.115 0.0054704C237.155 0.00219941 237.167 0.00203061 237.177 0.00146699C237.212 9.16719e-05 237.211 0.000447035 237.216 0.000274658C237.224 0.00015974 237.222 0.00019896 237.222 0.000191689C237.222 0.000193238 237.221 0.000202775 237.22 0.000216126C237.216 0.00024426 237.211 0.000287533 237.208 0.000304937C237.202 0.000351787 237.193 0.000414848 237.182 0.000482798C237.169 0.000568509 237.152 0.00067234 237.131 0.000797272C237.106 0.000947356 237.057 0.00121915 237.03 0.0013634C236.962 0.00173473 236.896 0.00207746 236.823 0.00245202C236.687 0.003142 236.549 0.00382352 236.407 0.00451577C236.136 0.00582898 235.847 0.00719881 235.575 0.00847483C235.022 0.0110753 234.454 0.0136943 233.91 0.016204C232.794 0.0213391 231.683 0.0264299 230.574 0.0315456C228.319 0.0419314 226.137 0.0521238 223.901 0.0627627C219.448 0.0839477 215.021 0.10586 210.532 0.129012C170.881 0.592746 131.28 2.54889 91.7068 3.88706C66.8501 4.74895 42.0358 5.64443 17.1944 6.57547C11.6242 6.78423 6.05313 6.99473 0.483086 7.20686Z" fill="#F2F2F2"/>
</svg>
