<svg width="24" height="24" viewBox="0 0 24 24" fill="none" xmlns="http://www.w3.org/2000/svg">
<path d="M7.5 12C8.29565 12 9.05871 11.6839 9.62132 11.1213C10.1839 10.5587 10.5 9.79565 10.5 9C10.5 8.20435 10.1839 7.44129 9.62132 6.87868C9.05871 6.31607 8.29565 6 7.5 6H3V18H7.5C8.29565 18 9.05871 17.6839 9.62132 17.1213C10.1839 16.5587 10.5 15.7956 10.5 15C10.5 14.2044 10.1839 13.4413 9.62132 12.8787C9.05871 12.3161 8.29565 12 7.5 12ZM7.5 12H3M14 13H21C21 12.0717 20.6313 11.1815 19.9749 10.5251C19.3185 9.86875 18.4283 9.5 17.5 9.5C16.5717 9.5 15.6815 9.86875 15.0251 10.5251C14.3687 11.1815 14 12.0717 14 13ZM14 13V15C14.1031 15.7487 14.4459 16.4438 14.9769 16.9816C15.5079 17.5193 16.1987 17.8707 16.946 17.9833C17.6933 18.0958 18.457 17.9634 19.1228 17.606C19.7887 17.2485 20.3209 16.6851 20.64 16M16 6H19" stroke="#F2F2F2" stroke-width="2" stroke-linecap="round" stroke-linejoin="round"/>
</svg>
